# 3ds Max Wavefront OBJ Exporter v0.97b - (c)2007 guruware
# File Created: 15.09.2015 22:44:09

mtllib 3d-model.mtl

#
# object Composant__1_002
#

v  393.7306 11119.8643 -296.5051
v  342.4614 11441.5127 -251.0444
v  316.3412 11441.5127 -280.5020
v  367.6104 11119.8643 -325.9626
v  412.5384 10796.5254 -365.8007
v  438.6586 10796.5254 -336.3431
v  521.1177 10474.3086 -409.4603
v  560.4935 10147.8438 -444.3750
v  534.3734 10147.8438 -473.8325
v  494.9975 10474.3086 -438.9178
v  331.0700 11441.5127 -293.5620
v  357.1902 11441.5127 -264.1045
v  419.4156 11121.4629 -319.2803
v  393.2955 11121.4629 -348.7378
v  554.4036 9490.7578 -438.9751
v  616.0999 9490.7578 -493.6816
v  592.1647 9819.8857 -472.4581
v  535.1067 9818.6123 -421.8644
v  509.3710 10145.6748 -399.0443
v  477.2142 10471.7207 -370.5308
v  474.0762 10798.9551 -367.7482
v  508.9865 9818.6123 -451.3219
v  528.2834 9490.7578 -468.4326
v  447.9560 10798.9551 -397.2057
v  589.9797 9490.7578 -523.1392
v  566.0445 9819.8857 -501.9156
v  451.0941 10471.7207 -399.9883
v  483.2508 10145.6748 -428.5018
v  -657.9279 0.0000 848.0602
v  -657.9279 5318.4912 848.0602
v  -789.3122 5318.4912 699.8892
v  -789.3122 0.0000 699.8892
v  -252.5853 0.0000 824.7205
v  -57.2563 0.0000 767.2894
v  -57.2563 6642.6909 767.2894
v  -252.5853 6642.6909 824.7205
v  127.0988 0.0000 680.8895
v  127.0988 6642.6909 680.8895
v  -454.3662 0.0000 851.8535
v  -454.3662 6642.6909 851.8535
v  -640.0917 6645.1885 848.3926
v  793.2529 0.0000 -293.8942
v  806.7707 0.0000 -497.0420
v  806.7707 6642.6909 -497.0420
v  793.2529 6642.6909 -293.8942
v  749.0718 0.0000 -95.1486
v  749.0718 6642.6909 -95.1486
v  296.2123 0.0000 567.5211
v  446.1690 0.0000 429.8087
v  446.1690 6642.6909 429.8087
v  296.2123 6642.6909 567.5211
v  573.4976 0.0000 270.9403
v  675.2505 0.0000 94.5938
v  675.2505 6642.6909 94.5938
v  573.4976 6642.6909 270.9403
v  789.3124 0.0000 -699.8890
v  789.3124 6642.6909 -699.8890
v  679.7615 8207.9551 -602.7494
v  806.7707 8207.9551 -497.0420
v  661.6074 9490.7578 -442.3597
v  -754.8679 9971.8428 669.3472
v  -727.0135 9971.8428 700.7604
v  -586.0117 10038.2188 703.3879
v  -677.2349 10038.2188 600.5094
v  -412.9418 10311.8584 366.1588
v  -188.9018 10311.8584 618.8239
v  -4.5467 10411.8799 532.4240
v  -266.8444 10411.8799 236.6130
v  -384.2308 10163.8857 676.2550
v  -550.8025 10163.8857 488.4008
v  466.5870 9490.7578 -413.7260
v  617.4263 9490.7578 -243.6141
v  331.0700 10511.8105 -293.5620
v  543.6050 10511.8105 -53.8718
v  36.4197 10511.8105 -32.2935
v  314.5236 10511.8105 281.3432
v  441.8522 10511.8105 122.4747
v  164.5668 10468.5244 419.0555
v  -115.8923 10468.5244 102.7628
# 79 vertices

vn -0.7338 -0.1955 0.6507
vn -0.7318 -0.2084 0.6489
vn -0.7374 -0.1697 0.6538
vn 0.7367 0.1747 -0.6533
vn 0.7405 0.1436 -0.6566
vn 0.7242 0.2515 -0.6421
vn 0.7270 0.2362 -0.6447
vn 0.6635 -0.0000 0.7482
vn -0.7459 -0.0784 0.6614
vn -0.7451 -0.0915 0.6607
vn 0.7322 0.2056 -0.6493
vn 0.0000 1.0000 0.0000
vn 0.7435 0.1124 -0.6592
vn 0.7447 0.0967 -0.6603
vn -0.7405 -0.1437 0.6566
vn -0.7430 -0.1176 0.6588
vn -0.7482 -0.0000 0.6635
vn 0.2083 0.0000 0.9781
vn 0.3543 0.0000 0.9352
vn 0.4920 0.0000 0.8706
vn -0.0186 0.0000 0.9998
vn 0.0572 0.0000 0.9984
vn 0.9899 -0.0000 0.1421
vn 1.0000 0.0000 -0.0097
vn 0.9568 0.0000 0.2906
vn 0.6184 0.0000 0.7859
vn 0.7305 0.0000 0.6829
vn 0.8256 0.0000 0.5642
vn 0.9017 0.0000 0.4324
vn 0.9963 0.0000 -0.0857
vn 0.6370 0.0921 -0.7654
vn 0.6362 0.1046 -0.7644
vn 0.8419 0.0631 0.5360
vn -0.4032 0.8424 0.3575
vn -0.7482 0.0099 0.6634
vn 0.7450 0.0931 -0.6606
vn -0.3411 0.8900 0.3025
vn -0.4465 0.8024 0.3959
vn -0.4685 0.7797 0.4154
vn -0.2023 0.9628 0.1793
vn -0.1556 0.9781 0.1380
vn 0.8243 0.0497 0.5640
vn 0.9021 0.0548 0.4280
vn 0.8864 0.0478 0.4605
vn 0.8249 0.0497 0.5630
vn 0.9683 0.0574 0.2431
vn 0.9867 0.0311 0.1596
vn 0.4914 0.0519 0.8694
vn 0.3543 0.0498 0.9338
vn 0.3525 0.0511 0.9344
vn 0.7294 0.0510 0.6822
vn 0.9810 0.0462 0.1886
vn 0.9546 0.0593 0.2918
vn 0.6176 0.0514 0.7848
vn 0.2087 0.0480 0.9768
vn 0.2012 0.0493 0.9783
vn 0.0592 0.0450 0.9972
vn 0.0532 0.0461 0.9975
vn -0.0186 0.0430 0.9989
vn -0.0390 0.0433 0.9983
vn 0.0000 -1.0000 -0.0000
# 61 vertex normals

vt -234.3983 605.6805 0.0000
vt -234.3983 623.9508 0.0000
vt -236.5855 623.9508 0.0000
vt -236.5855 605.6805 0.0000
vt -236.5855 590.4019 0.0000
vt -234.3983 590.4019 0.0000
vt -234.3983 608.6723 0.0000
vt -236.5855 608.6723 0.0000
vt 234.3983 574.1061 0.0000
vt 234.3983 555.7350 0.0000
vt 236.5855 555.7350 0.0000
vt 236.5855 574.1061 0.0000
vt 236.5855 617.6638 0.0000
vt 234.3983 617.6638 0.0000
vt 234.3983 599.2928 0.0000
vt 236.5855 599.2928 0.0000
vt 4.8818 527.2643 0.0000
vt 9.4628 527.2643 0.0000
vt 7.6856 545.5492 0.0000
vt 3.4490 545.4785 0.0000
vt 1.5382 563.6486 0.0000
vt 5.3340 563.7691 0.0000
vt -0.8495 581.7623 0.0000
vt 2.4104 581.9060 0.0000
vt -3.7123 599.8070 0.0000
vt -1.0825 599.9420 0.0000
vt -7.0482 617.7702 0.0000
vt -5.1411 617.8591 0.0000
vt -10.8549 635.6396 0.0000
vt -9.7613 635.6396 0.0000
vt -234.3983 525.2577 0.0000
vt -234.3983 543.5280 0.0000
vt -236.5855 543.5280 0.0000
vt -236.5855 525.2577 0.0000
vt 236.5855 589.2044 0.0000
vt 234.3983 589.2044 0.0000
vt 234.3983 570.8334 0.0000
vt 236.5855 570.8334 0.0000
vt -164.2666 170.5416 0.0000
vt -165.0849 169.8161 0.0000
vt -163.6338 168.1796 0.0000
vt -162.8155 168.9051 0.0000
vt 236.5855 603.7285 0.0000
vt 234.3983 603.7285 0.0000
vt 234.3983 585.3574 0.0000
vt 236.5855 585.3574 0.0000
vt 234.3983 542.2469 0.0000
vt 234.3983 523.8759 0.0000
vt 236.5855 523.8759 0.0000
vt 236.5855 542.2469 0.0000
vt -234.3983 574.7094 0.0000
vt -234.3983 592.9798 0.0000
vt -236.5855 592.9798 0.0000
vt -236.5855 574.7094 0.0000
vt -236.5855 542.1260 0.0000
vt -234.3983 542.1260 0.0000
vt -234.3983 560.3964 0.0000
vt -236.5855 560.3964 0.0000
vt 236.5855 558.4484 0.0000
vt 234.3983 558.4484 0.0000
vt 234.3983 540.0774 0.0000
vt 236.5855 540.0774 0.0000
vt -234.3983 558.6138 0.0000
vt -234.3983 576.8841 0.0000
vt -236.5855 576.8841 0.0000
vt -236.5855 558.6138 0.0000
vt 0.3578 0.0072 0.0000
vt 0.3578 0.4671 0.0000
vt 0.3909 0.0072 0.0000
vt 0.4100 0.0072 0.0000
vt 0.4100 0.5816 0.0000
vt 0.3909 0.5816 0.0000
vt 0.4303 0.0072 0.0000
vt 0.4303 0.5816 0.0000
vt 0.3734 0.0072 0.0000
vt 0.3734 0.5816 0.0000
vt 0.3592 0.5818 0.0000
vt 0.5492 0.0072 0.0000
vt 0.5642 0.0072 0.0000
vt 0.5642 0.5816 0.0000
vt 0.5492 0.5816 0.0000
vt 0.5321 0.0072 0.0000
vt 0.5321 0.5816 0.0000
vt 0.4513 0.0072 0.0000
vt 0.4724 0.0072 0.0000
vt 0.4724 0.5816 0.0000
vt 0.4513 0.5816 0.0000
vt 0.4932 0.0072 0.0000
vt 0.5133 0.0072 0.0000
vt 0.5133 0.5816 0.0000
vt 0.4932 0.5816 0.0000
vt 0.5769 0.0072 0.0000
vt 0.5769 0.5816 0.0000
vt 0.5617 0.7170 0.0000
vt 0.5642 0.7170 0.0000
vt 0.5492 0.8279 0.0000
vt 0.3626 0.8695 0.0000
vt 0.3734 0.8752 0.0000
vt 0.4100 0.8989 0.0000
vt 0.4303 0.9075 0.0000
vt 0.3909 0.8861 0.0000
vt 0.5406 0.8279 0.0000
vt 0.5321 0.8279 0.0000
vt 0.5133 0.9162 0.0000
vt 0.4724 0.9162 0.0000
vt 0.4932 0.9162 0.0000
vt 0.4513 0.9124 0.0000
vt 0.0000 0.0000 0.0000
# 108 texture coords

g Composant__1_002
usemtl wire_028089177
s off
f 1/1/1 2/2/2 3/3/2 4/4/1 
f 5/5/3 6/6/3 1/7/1 4/8/1 
f 7/9/4 8/10/5 9/11/5 10/12/4 
f 11/13/6 12/14/6 13/15/7 14/16/7 
f 15/17/8 16/18/8 17/19/8 18/20/8 
f 19/21/8 18/20/8 17/19/8 8/22/8 
f 20/23/8 19/21/8 8/22/8 7/24/8 
f 6/25/8 20/23/8 7/24/8 21/26/8 
f 1/27/8 6/25/8 21/26/8 13/28/8 
f 2/29/8 1/27/8 13/28/8 12/30/8 
f 15/31/9 18/32/10 22/33/10 23/34/9 
f 24/35/11 21/36/11 7/37/4 10/38/4 
f 11/39/12 3/40/12 2/41/12 12/42/12 
f 14/43/7 13/44/7 21/45/11 24/46/11 
f 17/47/13 16/48/14 25/49/14 26/50/13 
f 20/51/15 6/52/3 5/53/3 27/54/15 
f 22/55/10 18/56/10 19/57/16 28/58/16 
f 9/59/5 8/60/5 17/61/13 26/62/13 
f 19/63/16 20/64/15 27/65/15 28/66/16 
f 29/67/17 30/68/17 31/68/17 32/67/17 
f 33/69/18 34/70/19 35/71/19 36/72/18 
f 34/70/19 37/73/20 38/74/20 35/71/19 
f 29/67/21 39/75/22 40/76/22 30/68/21 
f 30/68/21 40/76/22 41/77/21 
f 42/78/23 43/79/24 44/80/24 45/81/23 
f 46/82/25 42/78/23 45/81/23 47/83/25 
f 48/84/26 49/85/27 50/86/27 51/87/26 
f 52/88/28 53/89/29 54/90/29 55/91/28 
f 44/80/24 43/79/24 56/92/30 57/93/30 
f 53/89/29 46/82/25 47/83/25 54/90/29 
f 57/93/31 58/94/31 59/95/31 
f 49/85/27 52/88/28 55/91/28 50/86/27 
f 37/73/20 48/84/26 51/87/26 38/74/20 
f 39/75/22 33/69/18 36/72/18 40/76/22 
f 58/94/32 60/96/32 59/95/32 
f 57/93/30 59/95/33 44/80/24 
f 61/97/34 62/97/34 63/98/34 64/98/34 
f 30/68/35 41/77/35 62/97/35 31/68/35 
f 31/68/35 62/97/35 61/97/35 
f 16/96/36 60/96/36 58/94/36 25/96/36 
f 65/99/37 66/99/37 67/100/37 68/100/37 
f 64/98/38 63/98/38 69/101/38 70/101/38 
f 23/102/12 71/103/12 72/103/12 15/102/12 
f 15/102/12 72/103/12 60/96/12 16/96/12 
f 73/104/4 74/104/4 72/103/4 71/103/4 
f 70/101/39 69/101/39 66/99/39 65/99/39 
f 75/105/12 76/105/12 77/106/12 73/104/12 
f 73/104/12 77/106/12 74/104/12 
f 68/100/40 67/100/40 78/107/40 79/107/40 
f 75/105/41 79/107/41 78/107/41 76/105/41 
f 55/91/42 54/90/43 74/104/44 77/106/45 
f 60/96/46 45/81/47 59/95/33 
f 59/95/33 45/81/47 44/80/24 
f 67/100/48 35/71/49 38/74/48 
f 67/100/48 66/99/50 35/71/49 
f 50/86/51 55/91/42 77/106/45 76/105/51 
f 74/104/44 54/90/43 72/103/52 
f 72/103/52 54/90/43 47/83/53 
f 76/105/51 51/87/54 50/86/51 
f 76/105/51 78/107/54 51/87/54 
f 47/83/53 45/81/47 60/96/46 72/103/52 
f 66/99/50 36/72/55 35/71/49 
f 66/99/50 69/101/56 36/72/55 
f 69/101/56 40/76/57 36/72/55 
f 69/101/56 63/98/58 40/76/57 
f 63/98/58 41/77/59 40/76/57 
f 63/98/58 62/97/60 41/77/59 
f 78/107/54 38/74/48 51/87/54 
f 78/107/54 67/100/48 38/74/48 
f 39/108/61 29/108/61 32/108/61 56/108/61 
f 33/108/61 39/108/61 56/108/61 34/108/61 
f 37/108/61 34/108/61 56/108/61 48/108/61 
f 49/108/61 48/108/61 56/108/61 52/108/61 
f 53/108/61 52/108/61 56/108/61 46/108/61 
f 42/108/61 46/108/61 56/108/61 43/108/61 
# 53 polygons - 22 triangles

#
# object Composant__1_001
#

v  341.4922 11119.8643 -355.4175
v  290.2233 11441.5127 -309.9567
v  316.3434 11441.5127 -280.4993
v  367.6124 11119.8643 -325.9601
v  412.5403 10796.5254 -365.7982
v  386.4200 10796.5254 -395.2557
v  468.8792 10474.3086 -468.3730
v  508.2548 10147.8438 -503.2880
v  534.3750 10147.8438 -473.8305
v  494.9994 10474.3086 -438.9156
v  331.0721 11441.5127 -293.5593
v  304.9520 11441.5127 -323.0168
v  367.1772 11121.4629 -378.1927
v  393.2975 11121.4629 -348.7352
v  502.1647 9490.7578 -497.8882
v  563.8610 9490.7578 -552.5947
v  539.9258 9819.8857 -531.3712
v  482.8679 9818.6123 -480.7773
v  457.1322 10145.6748 -457.9573
v  424.9758 10471.7207 -429.4435
v  421.8378 10798.9551 -426.6608
v  508.9880 9818.6123 -451.3199
v  528.2848 9490.7578 -468.4307
v  447.9579 10798.9551 -397.2034
v  589.9811 9490.7578 -523.1373
v  566.0460 9819.8857 -501.9138
v  451.0959 10471.7207 -399.9860
v  483.2524 10145.6748 -428.4998
v  -920.6985 -0.0002 551.7163
v  -920.6965 5318.4912 551.7186
v  -789.3123 5318.4907 699.8895
v  -789.3142 -0.0004 699.8873
v  -849.0217 -0.0001 152.0792
v  -768.6294 -0.0000 -34.9738
v  -768.6270 6642.6909 -34.9710
v  -849.0193 6642.6909 152.0820
v  -660.7897 -0.0000 -207.6653
v  -660.7872 6642.6909 -207.6625
v  -900.1057 -0.0002 349.1634
v  -900.1032 6642.6909 349.1662
v  -918.8917 6645.1885 533.9713
v  386.7042 -0.0002 -752.3862
v  590.0099 -0.0003 -741.4977
v  590.0123 6642.6904 -741.4949
v  386.7067 6642.6909 -752.3834
v  184.0999 -0.0001 -732.3054
v  184.1023 6642.6909 -732.3026
v  -527.9991 0.0000 -361.9975
v  -373.3318 -0.0000 -494.3975
v  -373.3293 6642.6909 -494.3947
v  -527.9966 6642.6909 -361.9947
v  -200.3683 -0.0000 -601.8004
v  -13.1128 -0.0001 -681.7198
v  -13.1104 6642.6909 -681.7170
v  -200.3658 6642.6909 -601.7976
v  789.3103 -0.0004 -699.8913
v  789.3127 6642.6904 -699.8885
v  679.7625 8207.9551 -602.7480
v  590.0129 8207.9551 -741.4942
v  518.3533 9490.7578 -603.9167
v  -754.8662 9971.8428 669.3494
v  -782.7206 9971.8428 637.9362
v  -768.4564 10038.2188 497.6332
v  -677.2332 10038.2188 600.5117
v  -412.9400 10311.8584 366.1611
v  -636.9800 10311.8584 113.4961
v  -529.1403 10411.8799 -59.1954
v  -266.8425 10411.8799 236.6154
v  -717.3724 10163.8857 300.5490
v  -550.8007 10163.8857 488.4031
v  466.5884 9490.7578 -413.7241
v  315.7489 9490.7578 -583.8358
v  331.0718 10511.8105 -293.5597
v  118.5366 10511.8105 -533.2498
v  36.4215 10511.8105 -32.2910
v  -241.6824 10511.8105 -345.9276
v  -68.7190 10511.8105 -453.3304
v  -396.3497 10468.5244 -213.5276
v  -115.8905 10468.5244 102.7652
# 79 vertices

vn -0.7338 -0.1955 0.6507
vn -0.7318 -0.2084 0.6489
vn -0.7374 -0.1697 0.6538
vn 0.7367 0.1747 -0.6533
vn 0.7405 0.1436 -0.6566
vn 0.7242 0.2515 -0.6421
vn 0.7270 0.2362 -0.6447
vn -0.6635 0.0000 -0.7482
vn -0.7459 -0.0784 0.6614
vn -0.7451 -0.0915 0.6607
vn 0.7322 0.2056 -0.6493
vn 0.0000 1.0000 0.0000
vn 0.7435 0.1124 -0.6592
vn 0.7447 0.0967 -0.6603
vn -0.7405 -0.1437 0.6566
vn -0.7430 -0.1176 0.6588
vn -0.7482 -0.0000 0.6635
vn -0.9461 0.0000 -0.3238
vn -0.8860 0.0000 -0.4636
vn -0.8054 0.0000 -0.5927
vn -0.9949 0.0000 -0.1011
vn -0.9844 0.0000 -0.1762
vn -0.0226 0.0000 -0.9997
vn 0.1293 0.0000 -0.9916
vn -0.1740 0.0000 -0.9847
vn -0.7062 0.0000 -0.7080
vn -0.5906 0.0000 -0.8069
vn -0.4614 0.0000 -0.8872
vn -0.3214 0.0000 -0.9469
vn 0.2044 0.0000 -0.9789
vn 0.8361 0.0921 -0.5408
vn 0.8350 0.1046 -0.5402
vn -0.4314 0.0631 -0.9000
vn -0.4032 0.8424 0.3575
vn -0.7482 0.0099 0.6634
vn 0.7450 0.0931 -0.6606
vn -0.3411 0.8900 0.3025
vn -0.4465 0.8024 0.3959
vn -0.4685 0.7797 0.4154
vn -0.2023 0.9628 0.1793
vn -0.1556 0.9781 0.1380
vn -0.4613 0.0497 -0.8858
vn -0.3170 0.0548 -0.9469
vn -0.3511 0.0478 -0.9351
vn -0.4603 0.0497 -0.8864
vn -0.1254 0.0574 -0.9904
vn -0.0404 0.0311 -0.9987
vn -0.8044 0.0519 -0.5919
vn -0.8847 0.0498 -0.4635
vn -0.8855 0.0511 -0.4617
vn -0.5900 0.0510 -0.8058
vn -0.0699 0.0462 -0.9965
vn -0.1755 0.0593 -0.9827
vn -0.7053 0.0514 -0.7070
vn -0.9448 0.0480 -0.3241
vn -0.9472 0.0493 -0.3168
vn -0.9830 0.0450 -0.1781
vn -0.9840 0.0461 -0.1721
vn -0.9939 0.0430 -0.1011
vn -0.9958 0.0433 -0.0808
vn -0.0000 -1.0000 -0.0000
# 61 vertex normals

vt -234.3983 605.6805 0.0000
vt -234.3983 623.9508 0.0000
vt -236.5855 623.9508 0.0000
vt -236.5855 605.6805 0.0000
vt -236.5855 590.4019 0.0000
vt -234.3983 590.4019 0.0000
vt -234.3983 608.6723 0.0000
vt -236.5855 608.6723 0.0000
vt 234.3983 574.1061 0.0000
vt 234.3983 555.7350 0.0000
vt 236.5855 555.7350 0.0000
vt 236.5855 574.1061 0.0000
vt 236.5855 617.6638 0.0000
vt 234.3983 617.6638 0.0000
vt 234.3983 599.2928 0.0000
vt 236.5855 599.2928 0.0000
vt 4.8818 527.2643 0.0000
vt 9.4628 527.2643 0.0000
vt 7.6856 545.5492 0.0000
vt 3.4490 545.4785 0.0000
vt 1.5382 563.6486 0.0000
vt 5.3340 563.7691 0.0000
vt -0.8495 581.7623 0.0000
vt 2.4104 581.9060 0.0000
vt -3.7123 599.8070 0.0000
vt -1.0825 599.9420 0.0000
vt -7.0482 617.7702 0.0000
vt -5.1411 617.8591 0.0000
vt -10.8549 635.6396 0.0000
vt -9.7613 635.6396 0.0000
vt -234.3983 525.2577 0.0000
vt -234.3983 543.5280 0.0000
vt -236.5855 543.5280 0.0000
vt -236.5855 525.2577 0.0000
vt 236.5855 589.2044 0.0000
vt 234.3983 589.2044 0.0000
vt 234.3983 570.8334 0.0000
vt 236.5855 570.8334 0.0000
vt -164.2666 170.5416 0.0000
vt -165.0849 169.8161 0.0000
vt -163.6338 168.1796 0.0000
vt -162.8155 168.9051 0.0000
vt 236.5855 603.7285 0.0000
vt 234.3983 603.7285 0.0000
vt 234.3983 585.3574 0.0000
vt 236.5855 585.3574 0.0000
vt 234.3983 542.2469 0.0000
vt 234.3983 523.8759 0.0000
vt 236.5855 523.8759 0.0000
vt 236.5855 542.2469 0.0000
vt -234.3983 574.7094 0.0000
vt -234.3983 592.9798 0.0000
vt -236.5855 592.9798 0.0000
vt -236.5855 574.7094 0.0000
vt -236.5855 542.1260 0.0000
vt -234.3983 542.1260 0.0000
vt -234.3983 560.3964 0.0000
vt -236.5855 560.3964 0.0000
vt 236.5855 558.4484 0.0000
vt 234.3983 558.4484 0.0000
vt 234.3983 540.0774 0.0000
vt 236.5855 540.0774 0.0000
vt -234.3983 558.6138 0.0000
vt -234.3983 576.8841 0.0000
vt -236.5855 576.8841 0.0000
vt -236.5855 558.6138 0.0000
vt 0.3578 0.0072 0.0000
vt 0.3578 0.4671 0.0000
vt 0.3909 0.0072 0.0000
vt 0.4100 0.0072 0.0000
vt 0.4100 0.5816 0.0000
vt 0.3909 0.5816 0.0000
vt 0.4303 0.0072 0.0000
vt 0.4303 0.5816 0.0000
vt 0.3734 0.0072 0.0000
vt 0.3734 0.5816 0.0000
vt 0.3592 0.5818 0.0000
vt 0.5492 0.0072 0.0000
vt 0.5642 0.0072 0.0000
vt 0.5642 0.5816 0.0000
vt 0.5492 0.5816 0.0000
vt 0.5321 0.0072 0.0000
vt 0.5321 0.5816 0.0000
vt 0.4513 0.0072 0.0000
vt 0.4724 0.0072 0.0000
vt 0.4724 0.5816 0.0000
vt 0.4513 0.5816 0.0000
vt 0.4932 0.0072 0.0000
vt 0.5133 0.0072 0.0000
vt 0.5133 0.5816 0.0000
vt 0.4932 0.5816 0.0000
vt 0.5769 0.0072 0.0000
vt 0.5769 0.5816 0.0000
vt 0.5617 0.7170 0.0000
vt 0.5642 0.7170 0.0000
vt 0.5492 0.8279 0.0000
vt 0.3626 0.8695 0.0000
vt 0.3734 0.8752 0.0000
vt 0.4100 0.8989 0.0000
vt 0.4303 0.9075 0.0000
vt 0.3909 0.8861 0.0000
vt 0.5406 0.8279 0.0000
vt 0.5321 0.8279 0.0000
vt 0.5133 0.9162 0.0000
vt 0.4724 0.9162 0.0000
vt 0.4932 0.9162 0.0000
vt 0.4513 0.9124 0.0000
vt 0.0000 0.0000 0.0000
# 108 texture coords

g Composant__1_001
usemtl wire_134006006
s off
f 83/112/62 82/111/63 81/110/63 80/109/62 
f 83/116/62 80/115/62 85/114/64 84/113/64 
f 89/120/65 88/119/66 87/118/66 86/117/65 
f 93/124/68 92/123/68 91/122/67 90/121/67 
f 97/128/69 96/127/69 95/126/69 94/125/69 
f 87/130/69 96/127/69 97/128/69 98/129/69 
f 86/132/69 87/130/69 98/129/69 99/131/69 
f 100/134/69 86/132/69 99/131/69 85/133/69 
f 92/136/69 100/134/69 85/133/69 80/135/69 
f 91/138/69 92/136/69 80/135/69 81/137/69 
f 102/142/70 101/141/71 97/140/71 94/139/70 
f 89/146/65 86/145/65 100/144/72 103/143/72 
f 91/150/73 81/149/73 82/148/73 90/147/73 
f 103/154/72 100/153/72 92/152/68 93/151/68 
f 105/158/74 104/157/75 95/156/75 96/155/74 
f 106/162/76 84/161/64 85/160/64 99/159/76 
f 107/166/77 98/165/77 97/164/71 101/163/71 
f 105/170/74 96/169/74 87/168/66 88/167/66 
f 107/174/77 106/173/76 99/172/76 98/171/77 
f 111/175/78 110/176/78 109/176/78 108/175/78 
f 115/180/79 114/179/80 113/178/80 112/177/79 
f 114/179/80 117/182/81 116/181/81 113/178/80 
f 109/176/82 119/184/83 118/183/83 108/175/82 
f 120/185/82 119/184/83 109/176/82 
f 124/189/84 123/188/85 122/187/85 121/186/84 
f 126/191/86 124/189/84 121/186/84 125/190/86 
f 130/195/87 129/194/88 128/193/88 127/192/87 
f 134/199/89 133/198/90 132/197/90 131/196/89 
f 136/201/91 135/200/91 122/187/85 123/188/85 
f 133/198/90 126/191/86 125/190/86 132/197/90 
f 138/203/92 137/202/92 136/201/92 
f 129/194/88 134/199/89 131/196/89 128/193/88 
f 117/182/81 130/195/87 127/192/87 116/181/81 
f 119/184/83 115/180/79 112/177/79 118/183/83 
f 138/203/93 139/204/93 137/202/93 
f 123/188/85 138/203/94 136/201/91 
f 143/206/95 142/206/95 141/205/95 140/205/95 
f 110/176/96 141/205/96 120/185/96 109/176/96 
f 140/205/96 141/205/96 110/176/96 
f 104/204/97 137/202/97 139/204/97 95/204/97 
f 147/208/98 146/208/98 145/207/98 144/207/98 
f 149/209/99 148/209/99 142/206/99 143/206/99 
f 94/210/73 151/211/73 150/211/73 102/210/73 
f 95/204/73 139/204/73 151/211/73 94/210/73 
f 150/211/65 151/211/65 153/212/65 152/212/65 
f 144/207/100 145/207/100 148/209/100 149/209/100 
f 152/212/73 156/214/73 155/213/73 154/213/73 
f 153/212/73 156/214/73 152/212/73 
f 158/215/101 157/215/101 146/208/101 147/208/101 
f 155/213/102 157/215/102 158/215/102 154/213/102 
f 156/214/106 153/212/105 133/198/104 134/199/103 
f 138/203/94 124/189/108 139/204/107 
f 123/188/85 124/189/108 138/203/94 
f 117/182/109 114/179/110 146/208/109 
f 114/179/110 145/207/111 146/208/109 
f 155/213/112 156/214/106 134/199/103 129/194/112 
f 151/211/113 133/198/104 153/212/105 
f 126/191/114 133/198/104 151/211/113 
f 129/194/112 130/195/115 155/213/112 
f 130/195/115 157/215/115 155/213/112 
f 151/211/113 139/204/107 124/189/108 126/191/114 
f 114/179/110 115/180/116 145/207/111 
f 115/180/116 148/209/117 145/207/111 
f 115/180/116 119/184/118 148/209/117 
f 119/184/118 142/206/119 148/209/117 
f 119/184/118 120/185/120 142/206/119 
f 120/185/120 141/205/121 142/206/119 
f 130/195/115 117/182/109 157/215/115 
f 117/182/109 146/208/109 157/215/115 
f 135/216/122 111/216/122 108/216/122 118/216/122 
f 113/216/122 135/216/122 118/216/122 112/216/122 
f 127/216/122 135/216/122 113/216/122 116/216/122 
f 131/216/122 135/216/122 127/216/122 128/216/122 
f 125/216/122 135/216/122 131/216/122 132/216/122 
f 122/216/122 135/216/122 125/216/122 121/216/122 
# 53 polygons - 22 triangles

